solid OpenSCAD_Model
  facet normal -1 0 0
    outer loop
      vertex -10 15.75 -2
      vertex -10 15.75 2
      vertex -10 17.25 -2
    endloop
  endfacet
  facet normal -1 0 0
    outer loop
      vertex -10 17.25 -2
      vertex -10 15.75 2
      vertex -10 17.25 2
    endloop
  endfacet
  facet normal -0.866025 -0.5 0
    outer loop
      vertex -10 15.75 -2
      vertex -9.125 14.2345 -2
      vertex -10 15.75 2
    endloop
  endfacet
  facet normal -0.866025 -0.5 0
    outer loop
      vertex -10 15.75 2
      vertex -9.125 14.2345 -2
      vertex -9.125 14.2345 2
    endloop
  endfacet
  facet normal 0 0 -1
    outer loop
      vertex -10 15.75 -2
      vertex -10 17.25 -2
      vertex -9.125 14.2345 -2
    endloop
  endfacet
  facet normal 0 0 -1
    outer loop
      vertex -9.125 14.2345 -2
      vertex -10 17.25 -2
      vertex -9.125 18.7655 -2
    endloop
  endfacet
  facet normal 0 0 -1
    outer loop
      vertex -9.125 14.2345 -2
      vertex -9.125 18.7655 -2
      vertex -8.25 18.7655 -2
    endloop
  endfacet
  facet normal 0 0 -1
    outer loop
      vertex -8.25 18.7655 -2
      vertex -8.25 19 -2
      vertex 8.25 19 -2
    endloop
  endfacet
  facet normal 0 0 -1
    outer loop
      vertex 7.23992 17.5962 -2
      vertex 9.125 18.7655 -2
      vertex 10 17.25 -2
    endloop
  endfacet
  facet normal 0 0 -1
    outer loop
      vertex 8.25 14.2345 -2
      vertex 10 15.75 -2
      vertex 9.125 14.2345 -2
    endloop
  endfacet
  facet normal 0 0 -1
    outer loop
      vertex 6.9 15.35 -2
      vertex -8.25 14.2345 -2
      vertex -9.125 14.2345 -2
    endloop
  endfacet
  facet normal 0 0 -1
    outer loop
      vertex 6.9 15.35 -2
      vertex -9.125 14.2345 -2
      vertex -6.9 15.35 -2
    endloop
  endfacet
  facet normal 0 0 -1
    outer loop
      vertex -5 14 -2
      vertex 5 14 -2
      vertex 5 -14.5 -2
    endloop
  endfacet
  facet normal 0 0 -1
    outer loop
      vertex -6.9 17.65 -2
      vertex 8.25 18.7655 -2
      vertex 9.125 18.7655 -2
    endloop
  endfacet
  facet normal 0 0 -1
    outer loop
      vertex -5 14 -2
      vertex 3.03381 -10.2958 -2
      vertex 2.50924 -9.71321 -2
    endloop
  endfacet
  facet normal 0 0 -1
    outer loop
      vertex 1 -18.5 -2
      vertex -1 -18.5 -2
      vertex -1 -18.4123 -2
    endloop
  endfacet
  facet normal 0 0 -1
    outer loop
      vertex -3.99404 -17.1525 -2
      vertex -4.88377 -15.4573 -2
      vertex -4.88377 -14.5 -2
    endloop
  endfacet
  facet normal 0 0 -1
    outer loop
      vertex 3.42579 -10.9747 -2
      vertex -5 14 -2
      vertex 5 -14.5 -2
    endloop
  endfacet
  facet normal 0 0 -1
    outer loop
      vertex -8.25 14.2345 -2
      vertex -5 14 -2
      vertex -8.25 14 -2
    endloop
  endfacet
  facet normal 0 0 -1
    outer loop
      vertex 8.25 14.2345 -2
      vertex 8.25 14 -2
      vertex -8.25 14.2345 -2
    endloop
  endfacet
  facet normal 0 0 -1
    outer loop
      vertex -8.25 18.7655 -2
      vertex -8 16.55 -2
      vertex -9.125 14.2345 -2
    endloop
  endfacet
  facet normal 0 0 -1
    outer loop
      vertex -8 16.55 -2
      vertex -8 16.45 -2
      vertex -9.125 14.2345 -2
    endloop
  endfacet
  facet normal 0 0 -1
    outer loop
      vertex -8 16.45 -2
      vertex -7.78992 16.45 -2
      vertex -9.125 14.2345 -2
    endloop
  endfacet
  facet normal 0 0 -1
    outer loop
      vertex -7.78992 16.45 -2
      vertex -7.78992 15.8034 -2
      vertex -9.125 14.2345 -2
    endloop
  endfacet
  facet normal 0 0 -1
    outer loop
      vertex -7.78992 15.8034 -2
      vertex -6.9 15.5143 -2
      vertex -9.125 14.2345 -2
    endloop
  endfacet
  facet normal 0 0 -1
    outer loop
      vertex -6.9 15.5143 -2
      vertex -6.9 15.35 -2
      vertex -9.125 14.2345 -2
    endloop
  endfacet
  facet normal 0 0 -1
    outer loop
      vertex 8.25 14.2345 -2
      vertex -8.25 14.2345 -2
      vertex 6.9 15.35 -2
    endloop
  endfacet
  facet normal 0 0 -1
    outer loop
      vertex 8.25 14.2345 -2
      vertex 6.9 15.35 -2
      vertex 10 15.75 -2
    endloop
  endfacet
  facet normal 0 0 -1
    outer loop
      vertex 7.23992 17.5962 -2
      vertex 10 17.25 -2
      vertex 8 16.55 -2
    endloop
  endfacet
  facet normal 0 0 -1
    outer loop
      vertex 6.9 15.5143 -2
      vertex 7.23992 15.4038 -2
      vertex 6.9 15.35 -2
    endloop
  endfacet
  facet normal 0 0 -1
    outer loop
      vertex 6.9 15.35 -2
      vertex 7.23992 15.4038 -2
      vertex 10 15.75 -2
    endloop
  endfacet
  facet normal 0 0 -1
    outer loop
      vertex 8 16.55 -2
      vertex 10 17.25 -2
      vertex 8 16.45 -2
    endloop
  endfacet
  facet normal 0 0 -1
    outer loop
      vertex -3.03381 -14.7042 -2
      vertex -2.41842 -18.2401 -2
      vertex -3.42579 -14.0253 -2
    endloop
  endfacet
  facet normal 0 0 -1
    outer loop
      vertex 6.9 17.65 -2
      vertex 9.125 18.7655 -2
      vertex 7.23992 17.5962 -2
    endloop
  endfacet
  facet normal 0 0 -1
    outer loop
      vertex 6.9 17.65 -2
      vertex 7.23992 17.5962 -2
      vertex 6.9 17.4857 -2
    endloop
  endfacet
  facet normal 0 0 -1
    outer loop
      vertex -8.25 18.7655 -2
      vertex 8.25 19 -2
      vertex -6.9 17.65 -2
    endloop
  endfacet
  facet normal 0 0 -1
    outer loop
      vertex -7.78992 16.55 -2
      vertex -8 16.55 -2
      vertex -7.78992 17.1966 -2
    endloop
  endfacet
  facet normal 0 0 -1
    outer loop
      vertex -7.78992 17.1966 -2
      vertex -6.9 17.65 -2
      vertex -6.9 17.4857 -2
    endloop
  endfacet
  facet normal 0 0 -1
    outer loop
      vertex -8.25 18.7655 -2
      vertex -6.9 17.65 -2
      vertex -7.78992 17.1966 -2
    endloop
  endfacet
  facet normal 0 0 -1
    outer loop
      vertex -8.25 18.7655 -2
      vertex -7.78992 17.1966 -2
      vertex -8 16.55 -2
    endloop
  endfacet
  facet normal 0 0 -1
    outer loop
      vertex -3.66805 -13.2797 -2
      vertex -3.99404 -17.1525 -2
      vertex -3.75 -12.5 -2
    endloop
  endfacet
  facet normal 0 0 -1
    outer loop
      vertex -2.41842 -18.2401 -2
      vertex -3.99404 -17.1525 -2
      vertex -3.66805 -13.2797 -2
    endloop
  endfacet
  facet normal 0 0 -1
    outer loop
      vertex -2.41842 -18.2401 -2
      vertex -3.66805 -13.2797 -2
      vertex -3.42579 -14.0253 -2
    endloop
  endfacet
  facet normal 0 0 -1
    outer loop
      vertex -5 14 -2
      vertex 3.42579 -10.9747 -2
      vertex 3.03381 -10.2958 -2
    endloop
  endfacet
  facet normal 0 0 -1
    outer loop
      vertex 3.42579 -10.9747 -2
      vertex 5 -14.5 -2
      vertex 3.66805 -11.7203 -2
    endloop
  endfacet
  facet normal 0 0 -1
    outer loop
      vertex 1 -18.5 -2
      vertex -1 -18.4123 -2
      vertex -1.15881 -16.0665 -2
    endloop
  endfacet
  facet normal 0 0 -1
    outer loop
      vertex 1 -18.5 -2
      vertex -1.15881 -16.0665 -2
      vertex -0.391982 -16.2295 -2
    endloop
  endfacet
  facet normal 0 0 -1
    outer loop
      vertex 1.48215 -18.4708 -2
      vertex 1 -18.4123 -2
      vertex 0.391982 -16.2295 -2
    endloop
  endfacet
  facet normal 0 0 -1
    outer loop
      vertex 3.27226 -17.7919 -2
      vertex 1.48215 -18.4708 -2
      vertex 1.15881 -16.0665 -2
    endloop
  endfacet
  facet normal 0 0 -1
    outer loop
      vertex 3.27226 -17.7919 -2
      vertex 1.15881 -16.0665 -2
      vertex 1.875 -15.7476 -2
    endloop
  endfacet
  facet normal 0 0 -1
    outer loop
      vertex 4.54182 -16.3589 -2
      vertex 3.27226 -17.7919 -2
      vertex 2.50924 -15.2868 -2
    endloop
  endfacet
  facet normal 0 0 -1
    outer loop
      vertex 4.54182 -16.3589 -2
      vertex 2.50924 -15.2868 -2
      vertex 3.03381 -14.7042 -2
    endloop
  endfacet
  facet normal 0 0 -1
    outer loop
      vertex 8 16.45 -2
      vertex 10 17.25 -2
      vertex 10 15.75 -2
    endloop
  endfacet
  facet normal 0 0 -1
    outer loop
      vertex 4.54182 -16.3589 -2
      vertex 3.03381 -14.7042 -2
      vertex 3.42579 -14.0253 -2
    endloop
  endfacet
  facet normal 0 0 -1
    outer loop
      vertex 5 -14.5 -2
      vertex 4.54182 -16.3589 -2
      vertex 3.66805 -13.2797 -2
    endloop
  endfacet
  facet normal 0 0 -1
    outer loop
      vertex 5 -14.5 -2
      vertex 3.66805 -13.2797 -2
      vertex 3.75 -12.5 -2
    endloop
  endfacet
  facet normal 0 0 -1
    outer loop
      vertex -6.9 17.65 -2
      vertex 9.125 18.7655 -2
      vertex 6.9 17.65 -2
    endloop
  endfacet
  facet normal 0 0 -1
    outer loop
      vertex -6.9 17.65 -2
      vertex 8.25 19 -2
      vertex 8.25 18.7655 -2
    endloop
  endfacet
  facet normal 0 0 -1
    outer loop
      vertex -8.25 14.2345 -2
      vertex 8.25 14 -2
      vertex 5 14 -2
    endloop
  endfacet
  facet normal 0 0 -1
    outer loop
      vertex -8.25 14.2345 -2
      vertex 5 14 -2
      vertex -5 14 -2
    endloop
  endfacet
  facet normal 0 0 -1
    outer loop
      vertex 8 16.45 -2
      vertex 10 15.75 -2
      vertex 7.23992 15.4038 -2
    endloop
  endfacet
  facet normal 0 0 -1
    outer loop
      vertex 0.391982 -16.2295 -2
      vertex 1 -18.4123 -2
      vertex 1 -18.5 -2
    endloop
  endfacet
  facet normal 0 0 -1
    outer loop
      vertex -2.41842 -18.2401 -2
      vertex -3.03381 -14.7042 -2
      vertex -2.50924 -15.2868 -2
    endloop
  endfacet
  facet normal 0 0 -1
    outer loop
      vertex -2.41842 -18.2401 -2
      vertex -2.50924 -15.2868 -2
      vertex -1.875 -15.7476 -2
    endloop
  endfacet
  facet normal 0 0 -1
    outer loop
      vertex -2.41842 -18.2401 -2
      vertex -1.875 -15.7476 -2
      vertex -1 -18.4123 -2
    endloop
  endfacet
  facet normal 0 0 -1
    outer loop
      vertex -5 14 -2
      vertex 2.50924 -9.71321 -2
      vertex 1.875 -9.2524 -2
    endloop
  endfacet
  facet normal 0 0 -1
    outer loop
      vertex 3.66805 -11.7203 -2
      vertex 5 -14.5 -2
      vertex 3.75 -12.5 -2
    endloop
  endfacet
  facet normal 0 0 -1
    outer loop
      vertex -5 14 -2
      vertex 1.875 -9.2524 -2
      vertex 1.15881 -8.93354 -2
    endloop
  endfacet
  facet normal 0 0 -1
    outer loop
      vertex -5 14 -2
      vertex 1.15881 -8.93354 -2
      vertex 0.391982 -8.77054 -2
    endloop
  endfacet
  facet normal 0 0 -1
    outer loop
      vertex 3.66805 -13.2797 -2
      vertex 4.54182 -16.3589 -2
      vertex 3.42579 -14.0253 -2
    endloop
  endfacet
  facet normal 0 0 -1
    outer loop
      vertex -5 14 -2
      vertex 0.391982 -8.77054 -2
      vertex -0.391982 -8.77054 -2
    endloop
  endfacet
  facet normal 0 0 -1
    outer loop
      vertex -5 14 -2
      vertex -0.391982 -8.77054 -2
      vertex -1.15881 -8.93354 -2
    endloop
  endfacet
  facet normal 0 0 -1
    outer loop
      vertex 2.50924 -15.2868 -2
      vertex 3.27226 -17.7919 -2
      vertex 1.875 -15.7476 -2
    endloop
  endfacet
  facet normal 0 0 -1
    outer loop
      vertex -5 14 -2
      vertex -1.15881 -8.93354 -2
      vertex -1.875 -9.2524 -2
    endloop
  endfacet
  facet normal 0 0 -1
    outer loop
      vertex 1.15881 -16.0665 -2
      vertex 1.48215 -18.4708 -2
      vertex 0.391982 -16.2295 -2
    endloop
  endfacet
  facet normal 0 0 -1
    outer loop
      vertex -5 14 -2
      vertex -1.875 -9.2524 -2
      vertex -2.50924 -9.71321 -2
    endloop
  endfacet
  facet normal 0 0 -1
    outer loop
      vertex -5 14 -2
      vertex -2.50924 -9.71321 -2
      vertex -3.03381 -10.2958 -2
    endloop
  endfacet
  facet normal 0 0 -1
    outer loop
      vertex 0.391982 -16.2295 -2
      vertex 1 -18.5 -2
      vertex -0.391982 -16.2295 -2
    endloop
  endfacet
  facet normal 0 0 -1
    outer loop
      vertex -5 14 -2
      vertex -3.03381 -10.2958 -2
      vertex -3.42579 -10.9747 -2
    endloop
  endfacet
  facet normal 0 0 -1
    outer loop
      vertex -5 14 -2
      vertex -3.42579 -10.9747 -2
      vertex -3.66805 -11.7203 -2
    endloop
  endfacet
  facet normal 0 0 -1
    outer loop
      vertex -1.15881 -16.0665 -2
      vertex -1 -18.4123 -2
      vertex -1.875 -15.7476 -2
    endloop
  endfacet
  facet normal 0 0 -1
    outer loop
      vertex -5 14 -2
      vertex -3.66805 -11.7203 -2
      vertex -3.75 -12.5 -2
    endloop
  endfacet
  facet normal 0 0 -1
    outer loop
      vertex -5 14 -2
      vertex -3.75 -12.5 -2
      vertex -3.99404 -17.1525 -2
    endloop
  endfacet
  facet normal 0 0 -1
    outer loop
      vertex -5 14 -2
      vertex -3.99404 -17.1525 -2
      vertex -4.88377 -14.5 -2
    endloop
  endfacet
  facet normal 0 0 -1
    outer loop
      vertex -5 14 -2
      vertex -4.88377 -14.5 -2
      vertex -5 -14.5 -2
    endloop
  endfacet
  facet normal -0.866025 0.5 0
    outer loop
      vertex -10 17.25 -2
      vertex -10 17.25 2
      vertex -9.125 18.7655 -2
    endloop
  endfacet
  facet normal -0.866025 0.5 0
    outer loop
      vertex -9.125 18.7655 -2
      vertex -10 17.25 2
      vertex -9.125 18.7655 2
    endloop
  endfacet
  facet normal 0 0 1
    outer loop
      vertex -10 17.25 2
      vertex -10 15.75 2
      vertex -9.125 14.2345 2
    endloop
  endfacet
  facet normal 0 0 1
    outer loop
      vertex -7.78992 15.8034 2
      vertex -10 17.25 2
      vertex -8.25 14.2345 2
    endloop
  endfacet
  facet normal 0 0 1
    outer loop
      vertex -8.25 14.2345 2
      vertex -10 17.25 2
      vertex -9.125 14.2345 2
    endloop
  endfacet
  facet normal 0 0 1
    outer loop
      vertex -5 14 2
      vertex -8.25 14.2345 2
      vertex -8.25 14 2
    endloop
  endfacet
  facet normal 0 0 1
    outer loop
      vertex -7.78992 15.8034 2
      vertex -7.78992 16.45 2
      vertex -8 16.45 2
    endloop
  endfacet
  facet normal 0 0 1
    outer loop
      vertex -4.88377 -14.5 2
      vertex -5 14 2
      vertex -5 -14.5 2
    endloop
  endfacet
  facet normal 0 0 1
    outer loop
      vertex -3.99404 -17.1525 2
      vertex -5 14 2
      vertex -4.88377 -14.5 2
    endloop
  endfacet
  facet normal 0 0 1
    outer loop
      vertex -3.99404 -17.1525 2
      vertex -4.88377 -14.5 2
      vertex -4.88377 -15.4573 2
    endloop
  endfacet
  facet normal 0 0 1
    outer loop
      vertex -3.75 -12.5 2
      vertex -5 14 2
      vertex -3.99404 -17.1525 2
    endloop
  endfacet
  facet normal 0 0 1
    outer loop
      vertex -1.15881 -16.0665 2
      vertex -1.875 -15.7476 2
      vertex -1 -18.4123 2
    endloop
  endfacet
  facet normal 0 0 1
    outer loop
      vertex 1 -18.5 2
      vertex -1 -18.4123 2
      vertex -1 -18.5 2
    endloop
  endfacet
  facet normal 0 0 1
    outer loop
      vertex 2.4 11.6 2
      vertex 2.4 -9.63384 2
      vertex 2.50924 -9.71321 2
    endloop
  endfacet
  facet normal 0 0 1
    outer loop
      vertex 6.9 15.35 2
      vertex 8.25 14 2
      vertex 8.25 14.2345 2
    endloop
  endfacet
  facet normal 0 0 1
    outer loop
      vertex 6.9 15.35 2
      vertex 8.25 14.2345 2
      vertex 9.125 14.2345 2
    endloop
  endfacet
  facet normal 0 0 1
    outer loop
      vertex -6.9 17.65 2
      vertex 8.25 18.7655 2
      vertex 8.25 19 2
    endloop
  endfacet
  facet normal 0 0 1
    outer loop
      vertex -6.9 17.65 2
      vertex 6.9 17.65 2
      vertex 9.125 18.7655 2
    endloop
  endfacet
  facet normal 0 0 1
    outer loop
      vertex 6.9 15.5143 2
      vertex 6.9 15.35 2
      vertex 7.23992 15.4038 2
    endloop
  endfacet
  facet normal 0 0 1
    outer loop
      vertex -8.25 19 2
      vertex -8.25 18.7655 2
      vertex 8.25 19 2
    endloop
  endfacet
  facet normal 0 0 1
    outer loop
      vertex -6.9 15.35 2
      vertex -7.78992 15.8034 2
      vertex -5 14 2
    endloop
  endfacet
  facet normal 0 0 1
    outer loop
      vertex -8 16.55 2
      vertex -10 17.25 2
      vertex -8 16.45 2
    endloop
  endfacet
  facet normal 0 0 1
    outer loop
      vertex -7.78992 16.55 2
      vertex -10 17.25 2
      vertex -8 16.55 2
    endloop
  endfacet
  facet normal 0 0 1
    outer loop
      vertex 1 -18.4123 2
      vertex 0.391982 -16.2295 2
      vertex 1 -18.5 2
    endloop
  endfacet
  facet normal 0 0 1
    outer loop
      vertex 6.9 15.35 2
      vertex 5 14 2
      vertex 8.25 14 2
    endloop
  endfacet
  facet normal 0 0 1
    outer loop
      vertex -6.9 17.65 2
      vertex 9.125 18.7655 2
      vertex 8.25 18.7655 2
    endloop
  endfacet
  facet normal 0 0 1
    outer loop
      vertex 8 16.45 2
      vertex 7.23992 15.4038 2
      vertex 10 15.75 2
    endloop
  endfacet
  facet normal 0 0 1
    outer loop
      vertex 7.23992 17.5962 2
      vertex 8 16.55 2
      vertex 10 17.25 2
    endloop
  endfacet
  facet normal 0 0 1
    outer loop
      vertex -8.25 18.7655 2
      vertex -6.9 17.65 2
      vertex 8.25 19 2
    endloop
  endfacet
  facet normal 0 0 1
    outer loop
      vertex -8.25 18.7655 2
      vertex -10 17.25 2
      vertex -6.9 17.65 2
    endloop
  endfacet
  facet normal 0 0 1
    outer loop
      vertex 9.125 18.7655 2
      vertex 6.9 17.65 2
      vertex 10 17.25 2
    endloop
  endfacet
  facet normal 0 0 1
    outer loop
      vertex 6.9 17.65 2
      vertex 7.23992 17.5962 2
      vertex 10 17.25 2
    endloop
  endfacet
  facet normal 0 0 1
    outer loop
      vertex 6.9 17.65 2
      vertex 6.9 17.4857 2
      vertex 7.23992 17.5962 2
    endloop
  endfacet
  facet normal 0 0 1
    outer loop
      vertex 10 17.25 2
      vertex 8 16.55 2
      vertex 10 15.75 2
    endloop
  endfacet
  facet normal 0 0 1
    outer loop
      vertex 8 16.55 2
      vertex 8 16.45 2
      vertex 10 15.75 2
    endloop
  endfacet
  facet normal 0 0 1
    outer loop
      vertex 10 15.75 2
      vertex 7.23992 15.4038 2
      vertex 9.125 14.2345 2
    endloop
  endfacet
  facet normal 0 0 1
    outer loop
      vertex -7.78992 17.1966 2
      vertex -6.9 17.4857 2
      vertex -10 17.25 2
    endloop
  endfacet
  facet normal 0 0 1
    outer loop
      vertex 7.23992 15.4038 2
      vertex 6.9 15.35 2
      vertex 9.125 14.2345 2
    endloop
  endfacet
  facet normal 0 0 1
    outer loop
      vertex -6.9 17.4857 2
      vertex -6.9 17.65 2
      vertex -10 17.25 2
    endloop
  endfacet
  facet normal 0 0 1
    outer loop
      vertex -7.78992 15.8034 2
      vertex -8 16.45 2
      vertex -10 17.25 2
    endloop
  endfacet
  facet normal 0 0 1
    outer loop
      vertex 3.42579 -10.9747 2
      vertex 3.66805 -11.7203 2
      vertex 5 -14.5 2
    endloop
  endfacet
  facet normal 0 0 1
    outer loop
      vertex -3.75 -12.5 2
      vertex -3.66805 -11.7203 2
      vertex -5 14 2
    endloop
  endfacet
  facet normal 0 0 1
    outer loop
      vertex -5 14 2
      vertex -7.78992 15.8034 2
      vertex -8.25 14.2345 2
    endloop
  endfacet
  facet normal 0 0 1
    outer loop
      vertex -6.9 15.5143 2
      vertex -7.78992 15.8034 2
      vertex -6.9 15.35 2
    endloop
  endfacet
  facet normal 0 0 1
    outer loop
      vertex -2.41842 -18.2401 2
      vertex -3.66805 -13.2797 2
      vertex -3.99404 -17.1525 2
    endloop
  endfacet
  facet normal 0 0 1
    outer loop
      vertex -3.03381 -14.7042 2
      vertex -3.42579 -14.0253 2
      vertex -2.41842 -18.2401 2
    endloop
  endfacet
  facet normal 0 0 1
    outer loop
      vertex -3.66805 -13.2797 2
      vertex -3.75 -12.5 2
      vertex -3.99404 -17.1525 2
    endloop
  endfacet
  facet normal 0 0 1
    outer loop
      vertex -3.42579 -10.9747 2
      vertex -3.03381 -10.2958 2
      vertex -5 14 2
    endloop
  endfacet
  facet normal 0 0 1
    outer loop
      vertex -3.42579 -10.9747 2
      vertex -5 14 2
      vertex -3.66805 -11.7203 2
    endloop
  endfacet
  facet normal 0 0 1
    outer loop
      vertex 3.66805 -13.2797 2
      vertex 3.42579 -14.0253 2
      vertex 4.54182 -16.3589 2
    endloop
  endfacet
  facet normal 0 0 1
    outer loop
      vertex -2.50924 -9.71321 2
      vertex -5 14 2
      vertex -3.03381 -10.2958 2
    endloop
  endfacet
  facet normal 0 0 1
    outer loop
      vertex -2.4 -9.63384 2
      vertex -5 14 2
      vertex -2.50924 -9.71321 2
    endloop
  endfacet
  facet normal 0 0 1
    outer loop
      vertex -2.50924 -15.2868 2
      vertex -3.03381 -14.7042 2
      vertex -2.41842 -18.2401 2
    endloop
  endfacet
  facet normal 0 0 1
    outer loop
      vertex -1.69706 13.2971 2
      vertex -5 14 2
      vertex -2.4 11.6 2
    endloop
  endfacet
  facet normal 0 0 1
    outer loop
      vertex 0 14 2
      vertex -5 14 2
      vertex -1.69706 13.2971 2
    endloop
  endfacet
  facet normal 0 0 1
    outer loop
      vertex 1.69706 13.2971 2
      vertex 2.4 11.6 2
      vertex 5 14 2
    endloop
  endfacet
  facet normal 0 0 1
    outer loop
      vertex 5 14 2
      vertex -5 14 2
      vertex 0 14 2
    endloop
  endfacet
  facet normal 0 0 1
    outer loop
      vertex 2.4 11.6 2
      vertex 3.42579 -10.9747 2
      vertex 5 -14.5 2
    endloop
  endfacet
  facet normal 0 0 1
    outer loop
      vertex 5 14 2
      vertex 2.4 11.6 2
      vertex 5 -14.5 2
    endloop
  endfacet
  facet normal 0 0 1
    outer loop
      vertex 1.15881 -16.0665 2
      vertex 0.391982 -16.2295 2
      vertex 1 -18.4123 2
    endloop
  endfacet
  facet normal 0 0 1
    outer loop
      vertex 3.03381 -14.7042 2
      vertex 2.50924 -15.2868 2
      vertex 3.27226 -17.7919 2
    endloop
  endfacet
  facet normal 0 0 1
    outer loop
      vertex 2.4 11.6 2
      vertex 2.50924 -9.71321 2
      vertex 3.03381 -10.2958 2
    endloop
  endfacet
  facet normal 0 0 1
    outer loop
      vertex 2.4 11.6 2
      vertex 3.03381 -10.2958 2
      vertex 3.42579 -10.9747 2
    endloop
  endfacet
  facet normal 0 0 1
    outer loop
      vertex 3.66805 -11.7203 2
      vertex 3.75 -12.5 2
      vertex 5 -14.5 2
    endloop
  endfacet
  facet normal 0 0 1
    outer loop
      vertex 0 14 2
      vertex 1.69706 13.2971 2
      vertex 5 14 2
    endloop
  endfacet
  facet normal 0 0 1
    outer loop
      vertex 5 -14.5 2
      vertex 3.75 -12.5 2
      vertex 4.54182 -16.3589 2
    endloop
  endfacet
  facet normal 0 0 1
    outer loop
      vertex 3.75 -12.5 2
      vertex 3.66805 -13.2797 2
      vertex 4.54182 -16.3589 2
    endloop
  endfacet
  facet normal 0 0 1
    outer loop
      vertex 4.54182 -16.3589 2
      vertex 3.42579 -14.0253 2
      vertex 3.27226 -17.7919 2
    endloop
  endfacet
  facet normal 0 0 1
    outer loop
      vertex 3.42579 -14.0253 2
      vertex 3.03381 -14.7042 2
      vertex 3.27226 -17.7919 2
    endloop
  endfacet
  facet normal 0 0 1
    outer loop
      vertex 3.27226 -17.7919 2
      vertex 2.50924 -15.2868 2
      vertex 1.48215 -18.4708 2
    endloop
  endfacet
  facet normal 0 0 1
    outer loop
      vertex 2.50924 -15.2868 2
      vertex 1.875 -15.7476 2
      vertex 1.48215 -18.4708 2
    endloop
  endfacet
  facet normal 0 0 1
    outer loop
      vertex 1.875 -15.7476 2
      vertex 1.15881 -16.0665 2
      vertex 1.48215 -18.4708 2
    endloop
  endfacet
  facet normal 0 0 1
    outer loop
      vertex 1 -18.5 2
      vertex 0.391982 -16.2295 2
      vertex -1 -18.4123 2
    endloop
  endfacet
  facet normal 0 0 1
    outer loop
      vertex 0.391982 -16.2295 2
      vertex -0.391982 -16.2295 2
      vertex -1 -18.4123 2
    endloop
  endfacet
  facet normal 0 0 1
    outer loop
      vertex -0.391982 -16.2295 2
      vertex -1.15881 -16.0665 2
      vertex -1 -18.4123 2
    endloop
  endfacet
  facet normal 0 0 1
    outer loop
      vertex -1 -18.4123 2
      vertex -1.875 -15.7476 2
      vertex -2.41842 -18.2401 2
    endloop
  endfacet
  facet normal 0 0 1
    outer loop
      vertex -1.875 -15.7476 2
      vertex -2.50924 -15.2868 2
      vertex -2.41842 -18.2401 2
    endloop
  endfacet
  facet normal 0 0 1
    outer loop
      vertex -2.41842 -18.2401 2
      vertex -3.42579 -14.0253 2
      vertex -3.66805 -13.2797 2
    endloop
  endfacet
  facet normal 0 0 1
    outer loop
      vertex -8.25 18.7655 2
      vertex -9.125 18.7655 2
      vertex -10 17.25 2
    endloop
  endfacet
  facet normal 0 0 1
    outer loop
      vertex 1.15881 -16.0665 2
      vertex 1 -18.4123 2
      vertex 1.48215 -18.4708 2
    endloop
  endfacet
  facet normal 0 0 1
    outer loop
      vertex -7.78992 16.55 2
      vertex -7.78992 17.1966 2
      vertex -10 17.25 2
    endloop
  endfacet
  facet normal 0 0 1
    outer loop
      vertex 6.9 15.35 2
      vertex -5 14 2
      vertex 5 14 2
    endloop
  endfacet
  facet normal 0 0 1
    outer loop
      vertex 6.9 15.35 2
      vertex -6.9 15.35 2
      vertex -5 14 2
    endloop
  endfacet
  facet normal 0 0 1
    outer loop
      vertex -2.4 -9.63384 2
      vertex -2.4 11.6 2
      vertex -5 14 2
    endloop
  endfacet
  facet normal 0 -1 0
    outer loop
      vertex -9.125 14.2345 2
      vertex -9.125 14.2345 -2
      vertex -8.25 14.2345 -2
    endloop
  endfacet
  facet normal 0 -1 0
    outer loop
      vertex -8.25 14.2345 2
      vertex -9.125 14.2345 2
      vertex -8.25 14.2345 -2
    endloop
  endfacet
  facet normal -1 0 0
    outer loop
      vertex -8.25 14 -2
      vertex -8.25 14 2
      vertex -8.25 14.2345 -2
    endloop
  endfacet
  facet normal -1 0 0
    outer loop
      vertex -8.25 14.2345 -2
      vertex -8.25 14 2
      vertex -8.25 14.2345 2
    endloop
  endfacet
  facet normal 0 -1 0
    outer loop
      vertex -8.25 14 2
      vertex -8.25 14 -2
      vertex -5 14 -2
    endloop
  endfacet
  facet normal 0 -1 0
    outer loop
      vertex -5 14 2
      vertex -8.25 14 2
      vertex -5 14 -2
    endloop
  endfacet
  facet normal -1 0 0
    outer loop
      vertex -5 -14.5 -2
      vertex -5 -14.5 2
      vertex -5 14 -2
    endloop
  endfacet
  facet normal -1 0 0
    outer loop
      vertex -5 14 -2
      vertex -5 -14.5 2
      vertex -5 14 2
    endloop
  endfacet
  facet normal 0 -1 0
    outer loop
      vertex -5 -14.5 2
      vertex -5 -14.5 -2
      vertex -4.88377 -14.5 -2
    endloop
  endfacet
  facet normal 0 -1 0
    outer loop
      vertex -4.88377 -14.5 2
      vertex -5 -14.5 2
      vertex -4.88377 -14.5 -2
    endloop
  endfacet
  facet normal -1 0 0
    outer loop
      vertex -4.88377 -15.4573 -2
      vertex -4.88377 -15.4573 2
      vertex -4.88377 -14.5 -2
    endloop
  endfacet
  facet normal -1 0 0
    outer loop
      vertex -4.88377 -14.5 -2
      vertex -4.88377 -15.4573 2
      vertex -4.88377 -14.5 2
    endloop
  endfacet
  facet normal -0.885456 -0.464723 0
    outer loop
      vertex -4.88377 -15.4573 -2
      vertex -3.99404 -17.1525 -2
      vertex -4.88377 -15.4573 2
    endloop
  endfacet
  facet normal -0.885456 -0.464723 0
    outer loop
      vertex -4.88377 -15.4573 2
      vertex -3.99404 -17.1525 -2
      vertex -3.99404 -17.1525 2
    endloop
  endfacet
  facet normal -0.568065 -0.822984 0
    outer loop
      vertex -3.99404 -17.1525 2
      vertex -3.99404 -17.1525 -2
      vertex -2.41842 -18.2401 -2
    endloop
  endfacet
  facet normal -0.568065 -0.822984 0
    outer loop
      vertex -2.41842 -18.2401 2
      vertex -3.99404 -17.1525 2
      vertex -2.41842 -18.2401 -2
    endloop
  endfacet
  facet normal -0.120536 -0.992709 0
    outer loop
      vertex -2.41842 -18.2401 2
      vertex -2.41842 -18.2401 -2
      vertex -1 -18.4123 -2
    endloop
  endfacet
  facet normal -0.120536 -0.992709 0
    outer loop
      vertex -1 -18.4123 2
      vertex -2.41842 -18.2401 2
      vertex -1 -18.4123 -2
    endloop
  endfacet
  facet normal -1 0 0
    outer loop
      vertex -1 -18.5 -2
      vertex -1 -18.5 2
      vertex -1 -18.4123 -2
    endloop
  endfacet
  facet normal -1 0 0
    outer loop
      vertex -1 -18.4123 -2
      vertex -1 -18.5 2
      vertex -1 -18.4123 2
    endloop
  endfacet
  facet normal 0 -1 0
    outer loop
      vertex -1 -18.5 2
      vertex -1 -18.5 -2
      vertex 1 -18.5 -2
    endloop
  endfacet
  facet normal 0 -1 0
    outer loop
      vertex 1 -18.5 2
      vertex -1 -18.5 2
      vertex 1 -18.5 -2
    endloop
  endfacet
  facet normal 1 0 0
    outer loop
      vertex 1 -18.5 2
      vertex 1 -18.5 -2
      vertex 1 -18.4123 -2
    endloop
  endfacet
  facet normal 1 0 0
    outer loop
      vertex 1 -18.4123 2
      vertex 1 -18.5 2
      vertex 1 -18.4123 -2
    endloop
  endfacet
  facet normal -0.120536 -0.992709 0
    outer loop
      vertex 1 -18.4123 2
      vertex 1 -18.4123 -2
      vertex 1.48215 -18.4708 -2
    endloop
  endfacet
  facet normal -0.120536 -0.992709 0
    outer loop
      vertex 1.48215 -18.4708 2
      vertex 1 -18.4123 2
      vertex 1.48215 -18.4708 -2
    endloop
  endfacet
  facet normal 0.354605 -0.935016 0
    outer loop
      vertex 1.48215 -18.4708 2
      vertex 1.48215 -18.4708 -2
      vertex 3.27226 -17.7919 -2
    endloop
  endfacet
  facet normal 0.354605 -0.935016 0
    outer loop
      vertex 3.27226 -17.7919 2
      vertex 1.48215 -18.4708 2
      vertex 3.27226 -17.7919 -2
    endloop
  endfacet
  facet normal 0.748511 -0.663123 0
    outer loop
      vertex 3.27226 -17.7919 2
      vertex 3.27226 -17.7919 -2
      vertex 4.54182 -16.3589 -2
    endloop
  endfacet
  facet normal 0.748511 -0.663123 0
    outer loop
      vertex 4.54182 -16.3589 2
      vertex 3.27226 -17.7919 2
      vertex 4.54182 -16.3589 -2
    endloop
  endfacet
  facet normal 0.970942 -0.239316 0
    outer loop
      vertex 4.54182 -16.3589 2
      vertex 4.54182 -16.3589 -2
      vertex 5 -14.5 -2
    endloop
  endfacet
  facet normal 0.970942 -0.239316 0
    outer loop
      vertex 5 -14.5 2
      vertex 4.54182 -16.3589 2
      vertex 5 -14.5 -2
    endloop
  endfacet
  facet normal 1 0 0
    outer loop
      vertex 5 -14.5 2
      vertex 5 -14.5 -2
      vertex 5 14 -2
    endloop
  endfacet
  facet normal 1 0 0
    outer loop
      vertex 5 14 2
      vertex 5 -14.5 2
      vertex 5 14 -2
    endloop
  endfacet
  facet normal 0 -1 0
    outer loop
      vertex 5 14 2
      vertex 5 14 -2
      vertex 8.25 14 -2
    endloop
  endfacet
  facet normal 0 -1 0
    outer loop
      vertex 8.25 14 2
      vertex 5 14 2
      vertex 8.25 14 -2
    endloop
  endfacet
  facet normal 1 0 0
    outer loop
      vertex 8.25 14 2
      vertex 8.25 14 -2
      vertex 8.25 14.2345 -2
    endloop
  endfacet
  facet normal 1 0 0
    outer loop
      vertex 8.25 14.2345 2
      vertex 8.25 14 2
      vertex 8.25 14.2345 -2
    endloop
  endfacet
  facet normal 0 -1 0
    outer loop
      vertex 8.25 14.2345 2
      vertex 8.25 14.2345 -2
      vertex 9.125 14.2345 -2
    endloop
  endfacet
  facet normal 0 -1 0
    outer loop
      vertex 9.125 14.2345 2
      vertex 8.25 14.2345 2
      vertex 9.125 14.2345 -2
    endloop
  endfacet
  facet normal 0.866025 -0.5 0
    outer loop
      vertex 9.125 14.2345 2
      vertex 9.125 14.2345 -2
      vertex 10 15.75 -2
    endloop
  endfacet
  facet normal 0.866025 -0.5 0
    outer loop
      vertex 10 15.75 2
      vertex 9.125 14.2345 2
      vertex 10 15.75 -2
    endloop
  endfacet
  facet normal 1 0 0
    outer loop
      vertex 10 15.75 2
      vertex 10 15.75 -2
      vertex 10 17.25 -2
    endloop
  endfacet
  facet normal 1 0 0
    outer loop
      vertex 10 17.25 2
      vertex 10 15.75 2
      vertex 10 17.25 -2
    endloop
  endfacet
  facet normal 0.866025 0.5 0
    outer loop
      vertex 10 17.25 -2
      vertex 9.125 18.7655 -2
      vertex 9.125 18.7655 2
    endloop
  endfacet
  facet normal 0.866025 0.5 0
    outer loop
      vertex 10 17.25 2
      vertex 10 17.25 -2
      vertex 9.125 18.7655 2
    endloop
  endfacet
  facet normal 0 1 0
    outer loop
      vertex 8.25 18.7655 -2
      vertex 8.25 18.7655 2
      vertex 9.125 18.7655 -2
    endloop
  endfacet
  facet normal 0 1 0
    outer loop
      vertex 9.125 18.7655 -2
      vertex 8.25 18.7655 2
      vertex 9.125 18.7655 2
    endloop
  endfacet
  facet normal 1 0 0
    outer loop
      vertex 8.25 18.7655 2
      vertex 8.25 18.7655 -2
      vertex 8.25 19 -2
    endloop
  endfacet
  facet normal 1 0 0
    outer loop
      vertex 8.25 19 2
      vertex 8.25 18.7655 2
      vertex 8.25 19 -2
    endloop
  endfacet
  facet normal 0 1 0
    outer loop
      vertex -8.25 19 -2
      vertex -8.25 19 2
      vertex 8.25 19 -2
    endloop
  endfacet
  facet normal 0 1 0
    outer loop
      vertex 8.25 19 -2
      vertex -8.25 19 2
      vertex 8.25 19 2
    endloop
  endfacet
  facet normal -1 0 0
    outer loop
      vertex -8.25 18.7655 -2
      vertex -8.25 18.7655 2
      vertex -8.25 19 -2
    endloop
  endfacet
  facet normal -1 0 0
    outer loop
      vertex -8.25 19 -2
      vertex -8.25 18.7655 2
      vertex -8.25 19 2
    endloop
  endfacet
  facet normal 0 1 0
    outer loop
      vertex -9.125 18.7655 -2
      vertex -9.125 18.7655 2
      vertex -8.25 18.7655 -2
    endloop
  endfacet
  facet normal 0 1 0
    outer loop
      vertex -8.25 18.7655 -2
      vertex -9.125 18.7655 2
      vertex -8.25 18.7655 2
    endloop
  endfacet
  facet normal 1 0 0
    outer loop
      vertex -8 16.55 -2
      vertex -8 16.55 2
      vertex -8 16.45 2
    endloop
  endfacet
  facet normal 1 0 0
    outer loop
      vertex -8 16.45 -2
      vertex -8 16.55 -2
      vertex -8 16.45 2
    endloop
  endfacet
  facet normal 0 -1 0
    outer loop
      vertex -7.78992 16.55 -2
      vertex -7.78992 16.55 2
      vertex -8 16.55 2
    endloop
  endfacet
  facet normal 0 -1 0
    outer loop
      vertex -8 16.55 -2
      vertex -7.78992 16.55 -2
      vertex -8 16.55 2
    endloop
  endfacet
  facet normal 1 0 0
    outer loop
      vertex -7.78992 17.1966 -2
      vertex -7.78992 17.1966 2
      vertex -7.78992 16.55 2
    endloop
  endfacet
  facet normal 1 0 0
    outer loop
      vertex -7.78992 16.55 -2
      vertex -7.78992 17.1966 -2
      vertex -7.78992 16.55 2
    endloop
  endfacet
  facet normal 0.309017 -0.951057 0
    outer loop
      vertex -6.9 17.4857 -2
      vertex -6.9 17.4857 2
      vertex -7.78992 17.1966 2
    endloop
  endfacet
  facet normal 0.309017 -0.951057 0
    outer loop
      vertex -7.78992 17.1966 -2
      vertex -6.9 17.4857 -2
      vertex -7.78992 17.1966 2
    endloop
  endfacet
  facet normal 1 0 0
    outer loop
      vertex -6.9 17.65 -2
      vertex -6.9 17.65 2
      vertex -6.9 17.4857 2
    endloop
  endfacet
  facet normal 1 0 0
    outer loop
      vertex -6.9 17.4857 -2
      vertex -6.9 17.65 -2
      vertex -6.9 17.4857 2
    endloop
  endfacet
  facet normal 0 -1 0
    outer loop
      vertex 6.9 17.65 -2
      vertex 6.9 17.65 2
      vertex -6.9 17.65 2
    endloop
  endfacet
  facet normal 0 -1 0
    outer loop
      vertex -6.9 17.65 -2
      vertex 6.9 17.65 -2
      vertex -6.9 17.65 2
    endloop
  endfacet
  facet normal -1 0 0
    outer loop
      vertex 6.9 17.65 2
      vertex 6.9 17.65 -2
      vertex 6.9 17.4857 2
    endloop
  endfacet
  facet normal -1 0 0
    outer loop
      vertex 6.9 17.4857 2
      vertex 6.9 17.65 -2
      vertex 6.9 17.4857 -2
    endloop
  endfacet
  facet normal 0.309017 -0.951057 0
    outer loop
      vertex 7.23992 17.5962 -2
      vertex 7.23992 17.5962 2
      vertex 6.9 17.4857 2
    endloop
  endfacet
  facet normal 0.309017 -0.951057 0
    outer loop
      vertex 6.9 17.4857 -2
      vertex 7.23992 17.5962 -2
      vertex 6.9 17.4857 2
    endloop
  endfacet
  facet normal -0.809017 -0.587785 0
    outer loop
      vertex 8 16.55 2
      vertex 7.23992 17.5962 2
      vertex 8 16.55 -2
    endloop
  endfacet
  facet normal -0.809017 -0.587785 0
    outer loop
      vertex 8 16.55 -2
      vertex 7.23992 17.5962 2
      vertex 7.23992 17.5962 -2
    endloop
  endfacet
  facet normal -1 0 0
    outer loop
      vertex 8 16.55 2
      vertex 8 16.55 -2
      vertex 8 16.45 2
    endloop
  endfacet
  facet normal -1 0 0
    outer loop
      vertex 8 16.45 2
      vertex 8 16.55 -2
      vertex 8 16.45 -2
    endloop
  endfacet
  facet normal -0.809017 0.587785 0
    outer loop
      vertex 8 16.45 2
      vertex 8 16.45 -2
      vertex 7.23992 15.4038 2
    endloop
  endfacet
  facet normal -0.809017 0.587785 0
    outer loop
      vertex 7.23992 15.4038 2
      vertex 8 16.45 -2
      vertex 7.23992 15.4038 -2
    endloop
  endfacet
  facet normal 0.309017 0.951057 0
    outer loop
      vertex 7.23992 15.4038 2
      vertex 7.23992 15.4038 -2
      vertex 6.9 15.5143 2
    endloop
  endfacet
  facet normal 0.309017 0.951057 0
    outer loop
      vertex 6.9 15.5143 2
      vertex 7.23992 15.4038 -2
      vertex 6.9 15.5143 -2
    endloop
  endfacet
  facet normal -1 0 0
    outer loop
      vertex 6.9 15.5143 2
      vertex 6.9 15.5143 -2
      vertex 6.9 15.35 2
    endloop
  endfacet
  facet normal -1 0 0
    outer loop
      vertex 6.9 15.35 2
      vertex 6.9 15.5143 -2
      vertex 6.9 15.35 -2
    endloop
  endfacet
  facet normal 0 1 0
    outer loop
      vertex 6.9 15.35 2
      vertex 6.9 15.35 -2
      vertex -6.9 15.35 2
    endloop
  endfacet
  facet normal 0 1 0
    outer loop
      vertex -6.9 15.35 2
      vertex 6.9 15.35 -2
      vertex -6.9 15.35 -2
    endloop
  endfacet
  facet normal 1 0 0
    outer loop
      vertex -6.9 15.5143 -2
      vertex -6.9 15.5143 2
      vertex -6.9 15.35 2
    endloop
  endfacet
  facet normal 1 0 0
    outer loop
      vertex -6.9 15.35 -2
      vertex -6.9 15.5143 -2
      vertex -6.9 15.35 2
    endloop
  endfacet
  facet normal 0.309017 0.951057 0
    outer loop
      vertex -6.9 15.5143 2
      vertex -6.9 15.5143 -2
      vertex -7.78992 15.8034 2
    endloop
  endfacet
  facet normal 0.309017 0.951057 0
    outer loop
      vertex -7.78992 15.8034 2
      vertex -6.9 15.5143 -2
      vertex -7.78992 15.8034 -2
    endloop
  endfacet
  facet normal 1 0 0
    outer loop
      vertex -7.78992 16.45 -2
      vertex -7.78992 16.45 2
      vertex -7.78992 15.8034 2
    endloop
  endfacet
  facet normal 1 0 0
    outer loop
      vertex -7.78992 15.8034 -2
      vertex -7.78992 16.45 -2
      vertex -7.78992 15.8034 2
    endloop
  endfacet
  facet normal 0 1 0
    outer loop
      vertex -7.78992 16.45 2
      vertex -7.78992 16.45 -2
      vertex -8 16.45 2
    endloop
  endfacet
  facet normal 0 1 0
    outer loop
      vertex -8 16.45 2
      vertex -7.78992 16.45 -2
      vertex -8 16.45 -2
    endloop
  endfacet
  facet normal 0.994522 -0.104528 0
    outer loop
      vertex -3.66805 -11.7203 -2
      vertex -3.66805 -11.7203 2
      vertex -3.75 -12.5 2
    endloop
  endfacet
  facet normal 0.994522 -0.104528 0
    outer loop
      vertex -3.75 -12.5 -2
      vertex -3.66805 -11.7203 -2
      vertex -3.75 -12.5 2
    endloop
  endfacet
  facet normal 0.994522 0.104528 0
    outer loop
      vertex -3.75 -12.5 2
      vertex -3.66805 -13.2797 2
      vertex -3.66805 -13.2797 -2
    endloop
  endfacet
  facet normal 0.994522 0.104528 0
    outer loop
      vertex -3.75 -12.5 -2
      vertex -3.75 -12.5 2
      vertex -3.66805 -13.2797 -2
    endloop
  endfacet
  facet normal 0.951056 -0.309018 0
    outer loop
      vertex -3.42579 -10.9747 -2
      vertex -3.42579 -10.9747 2
      vertex -3.66805 -11.7203 2
    endloop
  endfacet
  facet normal 0.951056 -0.309018 0
    outer loop
      vertex -3.66805 -11.7203 -2
      vertex -3.42579 -10.9747 -2
      vertex -3.66805 -11.7203 2
    endloop
  endfacet
  facet normal 0.866026 -0.499999 0
    outer loop
      vertex -3.03381 -10.2958 -2
      vertex -3.03381 -10.2958 2
      vertex -3.42579 -10.9747 2
    endloop
  endfacet
  facet normal 0.866026 -0.499999 0
    outer loop
      vertex -3.42579 -10.9747 -2
      vertex -3.03381 -10.2958 -2
      vertex -3.42579 -10.9747 2
    endloop
  endfacet
  facet normal 0.743145 -0.669131 0
    outer loop
      vertex -2.50924 -9.71321 -2
      vertex -2.50924 -9.71321 2
      vertex -3.03381 -10.2958 2
    endloop
  endfacet
  facet normal 0.743145 -0.669131 0
    outer loop
      vertex -3.03381 -10.2958 -2
      vertex -2.50924 -9.71321 -2
      vertex -3.03381 -10.2958 2
    endloop
  endfacet
  facet normal 0.587785 -0.809017 0
    outer loop
      vertex -1.875 -9.2524 -2
      vertex -1.875 -9.2524 0.5
      vertex -2.4 -9.63384 0.5
    endloop
  endfacet
  facet normal 0.587785 -0.809017 0
    outer loop
      vertex -2.50924 -9.71321 -2
      vertex -1.875 -9.2524 -2
      vertex -2.4 -9.63384 0.5
    endloop
  endfacet
  facet normal 0.587785 -0.809017 0
    outer loop
      vertex -2.4 -9.63384 2
      vertex -2.50924 -9.71321 2
      vertex -2.4 -9.63384 0.5
    endloop
  endfacet
  facet normal 0.587785 -0.809017 0
    outer loop
      vertex -2.50924 -9.71321 2
      vertex -2.50924 -9.71321 -2
      vertex -2.4 -9.63384 0.5
    endloop
  endfacet
  facet normal 0.406737 -0.913545 0
    outer loop
      vertex -1.15881 -8.93354 -2
      vertex -1.15881 -8.93354 0.5
      vertex -1.875 -9.2524 0.5
    endloop
  endfacet
  facet normal 0.406737 -0.913545 0
    outer loop
      vertex -1.875 -9.2524 -2
      vertex -1.15881 -8.93354 -2
      vertex -1.875 -9.2524 0.5
    endloop
  endfacet
  facet normal 0.207911 -0.978148 0
    outer loop
      vertex -0.391982 -8.77054 -2
      vertex -0.391982 -8.77054 0.5
      vertex -1.15881 -8.93354 0.5
    endloop
  endfacet
  facet normal 0.207911 -0.978148 0
    outer loop
      vertex -1.15881 -8.93354 -2
      vertex -0.391982 -8.77054 -2
      vertex -1.15881 -8.93354 0.5
    endloop
  endfacet
  facet normal 0 -1 0
    outer loop
      vertex 0.391982 -8.77054 -2
      vertex 0.391982 -8.77054 0.5
      vertex -0.391982 -8.77054 0.5
    endloop
  endfacet
  facet normal 0 -1 0
    outer loop
      vertex -0.391982 -8.77054 -2
      vertex 0.391982 -8.77054 -2
      vertex -0.391982 -8.77054 0.5
    endloop
  endfacet
  facet normal -0.207911 -0.978148 0
    outer loop
      vertex 1.15881 -8.93354 -2
      vertex 1.15881 -8.93354 0.5
      vertex 0.391982 -8.77054 0.5
    endloop
  endfacet
  facet normal -0.207911 -0.978148 0
    outer loop
      vertex 0.391982 -8.77054 -2
      vertex 1.15881 -8.93354 -2
      vertex 0.391982 -8.77054 0.5
    endloop
  endfacet
  facet normal -0.406737 -0.913545 0
    outer loop
      vertex 1.875 -9.2524 -2
      vertex 1.875 -9.2524 0.5
      vertex 1.15881 -8.93354 0.5
    endloop
  endfacet
  facet normal -0.406737 -0.913545 0
    outer loop
      vertex 1.15881 -8.93354 -2
      vertex 1.875 -9.2524 -2
      vertex 1.15881 -8.93354 0.5
    endloop
  endfacet
  facet normal -0.587785 -0.809017 0
    outer loop
      vertex 2.50924 -9.71321 -2
      vertex 2.50924 -9.71321 2
      vertex 2.4 -9.63384 2
    endloop
  endfacet
  facet normal -0.587785 -0.809017 0
    outer loop
      vertex 1.875 -9.2524 0.5
      vertex 2.50924 -9.71321 -2
      vertex 2.4 -9.63384 0.5
    endloop
  endfacet
  facet normal -0.587785 -0.809017 0
    outer loop
      vertex 2.4 -9.63384 0.5
      vertex 2.50924 -9.71321 -2
      vertex 2.4 -9.63384 2
    endloop
  endfacet
  facet normal -0.587785 -0.809017 0
    outer loop
      vertex 1.875 -9.2524 -2
      vertex 2.50924 -9.71321 -2
      vertex 1.875 -9.2524 0.5
    endloop
  endfacet
  facet normal -0.743145 -0.669131 0
    outer loop
      vertex 3.03381 -10.2958 2
      vertex 2.50924 -9.71321 2
      vertex 3.03381 -10.2958 -2
    endloop
  endfacet
  facet normal -0.743145 -0.669131 0
    outer loop
      vertex 3.03381 -10.2958 -2
      vertex 2.50924 -9.71321 2
      vertex 2.50924 -9.71321 -2
    endloop
  endfacet
  facet normal -0.866026 -0.499999 0
    outer loop
      vertex 3.42579 -10.9747 2
      vertex 3.03381 -10.2958 2
      vertex 3.42579 -10.9747 -2
    endloop
  endfacet
  facet normal -0.866026 -0.499999 0
    outer loop
      vertex 3.42579 -10.9747 -2
      vertex 3.03381 -10.2958 2
      vertex 3.03381 -10.2958 -2
    endloop
  endfacet
  facet normal -0.951056 -0.309018 0
    outer loop
      vertex 3.66805 -11.7203 2
      vertex 3.42579 -10.9747 2
      vertex 3.66805 -11.7203 -2
    endloop
  endfacet
  facet normal -0.951056 -0.309018 0
    outer loop
      vertex 3.66805 -11.7203 -2
      vertex 3.42579 -10.9747 2
      vertex 3.42579 -10.9747 -2
    endloop
  endfacet
  facet normal -0.994522 -0.104528 0
    outer loop
      vertex 3.75 -12.5 2
      vertex 3.66805 -11.7203 2
      vertex 3.75 -12.5 -2
    endloop
  endfacet
  facet normal -0.994522 -0.104528 0
    outer loop
      vertex 3.75 -12.5 -2
      vertex 3.66805 -11.7203 2
      vertex 3.66805 -11.7203 -2
    endloop
  endfacet
  facet normal -0.994522 0.104528 0
    outer loop
      vertex 3.75 -12.5 2
      vertex 3.75 -12.5 -2
      vertex 3.66805 -13.2797 2
    endloop
  endfacet
  facet normal -0.994522 0.104528 0
    outer loop
      vertex 3.66805 -13.2797 2
      vertex 3.75 -12.5 -2
      vertex 3.66805 -13.2797 -2
    endloop
  endfacet
  facet normal -0.951056 0.309018 0
    outer loop
      vertex 3.66805 -13.2797 2
      vertex 3.66805 -13.2797 -2
      vertex 3.42579 -14.0253 2
    endloop
  endfacet
  facet normal -0.951056 0.309018 0
    outer loop
      vertex 3.42579 -14.0253 2
      vertex 3.66805 -13.2797 -2
      vertex 3.42579 -14.0253 -2
    endloop
  endfacet
  facet normal -0.866026 0.499999 0
    outer loop
      vertex 3.42579 -14.0253 2
      vertex 3.42579 -14.0253 -2
      vertex 3.03381 -14.7042 2
    endloop
  endfacet
  facet normal -0.866026 0.499999 0
    outer loop
      vertex 3.03381 -14.7042 2
      vertex 3.42579 -14.0253 -2
      vertex 3.03381 -14.7042 -2
    endloop
  endfacet
  facet normal -0.743145 0.669131 0
    outer loop
      vertex 3.03381 -14.7042 2
      vertex 3.03381 -14.7042 -2
      vertex 2.50924 -15.2868 2
    endloop
  endfacet
  facet normal -0.743145 0.669131 0
    outer loop
      vertex 2.50924 -15.2868 2
      vertex 3.03381 -14.7042 -2
      vertex 2.50924 -15.2868 -2
    endloop
  endfacet
  facet normal -0.587785 0.809017 0
    outer loop
      vertex 2.50924 -15.2868 2
      vertex 2.50924 -15.2868 -2
      vertex 1.875 -15.7476 2
    endloop
  endfacet
  facet normal -0.587785 0.809017 0
    outer loop
      vertex 1.875 -15.7476 2
      vertex 2.50924 -15.2868 -2
      vertex 1.875 -15.7476 -2
    endloop
  endfacet
  facet normal -0.406737 0.913545 0
    outer loop
      vertex 1.875 -15.7476 2
      vertex 1.875 -15.7476 -2
      vertex 1.15881 -16.0665 2
    endloop
  endfacet
  facet normal -0.406737 0.913545 0
    outer loop
      vertex 1.15881 -16.0665 2
      vertex 1.875 -15.7476 -2
      vertex 1.15881 -16.0665 -2
    endloop
  endfacet
  facet normal -0.207911 0.978148 0
    outer loop
      vertex 1.15881 -16.0665 2
      vertex 1.15881 -16.0665 -2
      vertex 0.391982 -16.2295 2
    endloop
  endfacet
  facet normal -0.207911 0.978148 0
    outer loop
      vertex 0.391982 -16.2295 2
      vertex 1.15881 -16.0665 -2
      vertex 0.391982 -16.2295 -2
    endloop
  endfacet
  facet normal 0 1 0
    outer loop
      vertex 0.391982 -16.2295 2
      vertex 0.391982 -16.2295 -2
      vertex -0.391982 -16.2295 2
    endloop
  endfacet
  facet normal 0 1 0
    outer loop
      vertex -0.391982 -16.2295 2
      vertex 0.391982 -16.2295 -2
      vertex -0.391982 -16.2295 -2
    endloop
  endfacet
  facet normal 0.207911 0.978148 0
    outer loop
      vertex -0.391982 -16.2295 2
      vertex -0.391982 -16.2295 -2
      vertex -1.15881 -16.0665 2
    endloop
  endfacet
  facet normal 0.207911 0.978148 0
    outer loop
      vertex -1.15881 -16.0665 2
      vertex -0.391982 -16.2295 -2
      vertex -1.15881 -16.0665 -2
    endloop
  endfacet
  facet normal 0.406737 0.913545 0
    outer loop
      vertex -1.15881 -16.0665 2
      vertex -1.15881 -16.0665 -2
      vertex -1.875 -15.7476 2
    endloop
  endfacet
  facet normal 0.406737 0.913545 0
    outer loop
      vertex -1.875 -15.7476 2
      vertex -1.15881 -16.0665 -2
      vertex -1.875 -15.7476 -2
    endloop
  endfacet
  facet normal 0.587785 0.809017 0
    outer loop
      vertex -1.875 -15.7476 2
      vertex -1.875 -15.7476 -2
      vertex -2.50924 -15.2868 2
    endloop
  endfacet
  facet normal 0.587785 0.809017 0
    outer loop
      vertex -2.50924 -15.2868 2
      vertex -1.875 -15.7476 -2
      vertex -2.50924 -15.2868 -2
    endloop
  endfacet
  facet normal 0.743145 0.669131 0
    outer loop
      vertex -3.03381 -14.7042 2
      vertex -2.50924 -15.2868 2
      vertex -2.50924 -15.2868 -2
    endloop
  endfacet
  facet normal 0.743145 0.669131 0
    outer loop
      vertex -3.03381 -14.7042 -2
      vertex -3.03381 -14.7042 2
      vertex -2.50924 -15.2868 -2
    endloop
  endfacet
  facet normal 0.866026 0.499999 0
    outer loop
      vertex -3.42579 -14.0253 2
      vertex -3.03381 -14.7042 2
      vertex -3.03381 -14.7042 -2
    endloop
  endfacet
  facet normal 0.866026 0.499999 0
    outer loop
      vertex -3.42579 -14.0253 -2
      vertex -3.42579 -14.0253 2
      vertex -3.03381 -14.7042 -2
    endloop
  endfacet
  facet normal 0.951056 0.309018 0
    outer loop
      vertex -3.66805 -13.2797 2
      vertex -3.42579 -14.0253 2
      vertex -3.42579 -14.0253 -2
    endloop
  endfacet
  facet normal 0.951056 0.309018 0
    outer loop
      vertex -3.66805 -13.2797 -2
      vertex -3.66805 -13.2797 2
      vertex -3.42579 -14.0253 -2
    endloop
  endfacet
  facet normal -1 0 0
    outer loop
      vertex 2.4 11.6 2
      vertex 2.4 11.6 0.5
      vertex 2.4 -9.63384 2
    endloop
  endfacet
  facet normal -1 0 0
    outer loop
      vertex 2.4 -9.63384 2
      vertex 2.4 11.6 0.5
      vertex 2.4 -9.63384 0.5
    endloop
  endfacet
  facet normal -0.923879 -0.382684 0
    outer loop
      vertex 2.4 11.6 2
      vertex 1.69706 13.2971 2
      vertex 2.4 11.6 0.5
    endloop
  endfacet
  facet normal -0.923879 -0.382684 0
    outer loop
      vertex 2.4 11.6 0.5
      vertex 1.69706 13.2971 2
      vertex 1.69706 13.2971 0.5
    endloop
  endfacet
  facet normal -0.382684 -0.923879 0
    outer loop
      vertex 1.69706 13.2971 0.5
      vertex 1.69706 13.2971 2
      vertex 0 14 2
    endloop
  endfacet
  facet normal -0.382684 -0.923879 0
    outer loop
      vertex 0 14 0.5
      vertex 1.69706 13.2971 0.5
      vertex 0 14 2
    endloop
  endfacet
  facet normal 0.382684 -0.923879 0
    outer loop
      vertex 0 14 0.5
      vertex 0 14 2
      vertex -1.69706 13.2971 2
    endloop
  endfacet
  facet normal 0.382684 -0.923879 0
    outer loop
      vertex -1.69706 13.2971 0.5
      vertex 0 14 0.5
      vertex -1.69706 13.2971 2
    endloop
  endfacet
  facet normal 0.923879 -0.382684 0
    outer loop
      vertex -1.69706 13.2971 0.5
      vertex -1.69706 13.2971 2
      vertex -2.4 11.6 2
    endloop
  endfacet
  facet normal 0.923879 -0.382684 0
    outer loop
      vertex -2.4 11.6 0.5
      vertex -1.69706 13.2971 0.5
      vertex -2.4 11.6 2
    endloop
  endfacet
  facet normal 1 0 0
    outer loop
      vertex -2.4 11.6 0.5
      vertex -2.4 11.6 2
      vertex -2.4 -9.63384 2
    endloop
  endfacet
  facet normal 1 0 0
    outer loop
      vertex -2.4 -9.63384 0.5
      vertex -2.4 11.6 0.5
      vertex -2.4 -9.63384 2
    endloop
  endfacet
  facet normal 0 0 1
    outer loop
      vertex 2.4 11.6 0.5
      vertex -1.15881 -8.93354 0.5
      vertex -0.391982 -8.77054 0.5
    endloop
  endfacet
  facet normal 0 0 1
    outer loop
      vertex 1.15881 -8.93354 0.5
      vertex 2.4 11.6 0.5
      vertex 0.391982 -8.77054 0.5
    endloop
  endfacet
  facet normal 0 0 1
    outer loop
      vertex 0.391982 -8.77054 0.5
      vertex 2.4 11.6 0.5
      vertex -0.391982 -8.77054 0.5
    endloop
  endfacet
  facet normal 0 0 1
    outer loop
      vertex -1.875 -9.2524 0.5
      vertex -1.15881 -8.93354 0.5
      vertex 2.4 11.6 0.5
    endloop
  endfacet
  facet normal 0 0 1
    outer loop
      vertex 1.875 -9.2524 0.5
      vertex 2.4 11.6 0.5
      vertex 1.15881 -8.93354 0.5
    endloop
  endfacet
  facet normal 0 0 1
    outer loop
      vertex 2.4 -9.63384 0.5
      vertex 2.4 11.6 0.5
      vertex 1.875 -9.2524 0.5
    endloop
  endfacet
  facet normal 0 0 1
    outer loop
      vertex 2.4 11.6 0.5
      vertex 1.69706 13.2971 0.5
      vertex -1.875 -9.2524 0.5
    endloop
  endfacet
  facet normal 0 0 1
    outer loop
      vertex 1.69706 13.2971 0.5
      vertex 0 14 0.5
      vertex -1.875 -9.2524 0.5
    endloop
  endfacet
  facet normal 0 0 1
    outer loop
      vertex 0 14 0.5
      vertex -1.69706 13.2971 0.5
      vertex -1.875 -9.2524 0.5
    endloop
  endfacet
  facet normal 0 0 1
    outer loop
      vertex -1.69706 13.2971 0.5
      vertex -2.4 11.6 0.5
      vertex -1.875 -9.2524 0.5
    endloop
  endfacet
  facet normal 0 0 1
    outer loop
      vertex -2.4 11.6 0.5
      vertex -2.4 -9.63384 0.5
      vertex -1.875 -9.2524 0.5
    endloop
  endfacet
endsolid OpenSCAD_Model
